HIERARCHY
ROOT Hips
{
	OFFSET -3.958830 18.904000 13.208200
	CHANNELS 6 Xposition Yposition Zposition Zrotation Yrotation Xrotation 
	JOINT LHipJoint
	{
		OFFSET 0.000000 0.000000 0.000000
		CHANNELS 3 Zrotation Yrotation Xrotation
		JOINT LeftUpLeg
		{
			OFFSET 1.800000 -1.400000 0.085000
			CHANNELS 3 Zrotation Yrotation Xrotation
			JOINT LeftLeg
			{
				OFFSET 2.215000 -6.000000 0.000000
				CHANNELS 3 Zrotation Yrotation Xrotation
				JOINT LeftFoot
				{
					OFFSET 2.500000 -6.900000 0.000000
					CHANNELS 3 Zrotation Yrotation Xrotation
					JOINT LeftToeBase
					{
						OFFSET 0.200000 -0.500000 1.950000
						CHANNELS 3 Zrotation Yrotation Xrotation
						End Site
						{
							OFFSET 0.000000 0.000000 0.000000
						}
					}
				}
			}
		}
	}
	JOINT RHipJoint
	{
		OFFSET 0.000000 0.000000 0.000000
		CHANNELS 3 Zrotation Yrotation Xrotation
		JOINT RightUpLeg
		{
			OFFSET -1.800000 -1.400000 0.085000
			CHANNELS 3 Zrotation Yrotation Xrotation
			JOINT RightLeg
			{
				OFFSET -2.215000 -6.000000 0.000000
				CHANNELS 3 Zrotation Yrotation Xrotation
				JOINT RightFoot
				{
					OFFSET -2.500000 -6.900000 0.000000
					CHANNELS 3 Zrotation Yrotation Xrotation
					JOINT RightToeBase
					{
						OFFSET -0.200000 -0.500000 1.950000
						CHANNELS 3 Zrotation Yrotation Xrotation
						End Site
						{
							OFFSET 0.000000 0.000000 0.000000
						}
					}
				}
			}
		}
	}
	JOINT LowerBack
	{
		OFFSET 0.000000 0.000000 0.000000
		CHANNELS 3 Zrotation Yrotation Xrotation
		JOINT Spine
		{
			OFFSET -0.087000 1.940000 -0.288900
			CHANNELS 3 Zrotation Yrotation Xrotation
			JOINT Spine1
			{
				OFFSET 0.000000 1.950000 0.060000
				CHANNELS 3 Zrotation Yrotation Xrotation
				JOINT Neck
				{
					OFFSET 0.000000 0.000000 0.000000
					CHANNELS 3 Zrotation Yrotation Xrotation
					JOINT Neck1
					{
						OFFSET 0.000000 1.600000 0.340000
						CHANNELS 3 Zrotation Yrotation Xrotation
						JOINT Head
						{
							OFFSET 0.000000 1.667000 -0.240000
							CHANNELS 3 Zrotation Yrotation Xrotation
							End Site
							{
								OFFSET 0.000000 0.000000 0.000000
							}
						}
					}
				}
				JOINT LeftShoulder
				{
					OFFSET 0.000000 0.000000 0.000000
					CHANNELS 3 Zrotation Yrotation Xrotation
					JOINT LeftArm
					{
						OFFSET 2.700000 1.550000 -0.730000
						CHANNELS 3 Zrotation Yrotation Xrotation
						JOINT LeftForeArm
						{
							OFFSET 5.450000 0.000000 0.000000
							CHANNELS 3 Zrotation Yrotation Xrotation
							JOINT LeftHand
							{
								OFFSET 3.450000 0.000000 0.000000
								CHANNELS 3 Zrotation Yrotation Xrotation
								JOINT LeftHandIndex1
								{
									OFFSET 0.750000 0.000000 0.000000
									CHANNELS 3 Zrotation Yrotation Xrotation
									End Site
									{
										OFFSET 0.000000 0.000000 0.000000
									}
								}
							}
						}
					}
				}
				JOINT RightShoulder
				{
					OFFSET 0.000000 0.000000 0.000000
					CHANNELS 3 Zrotation Yrotation Xrotation
					JOINT RightArm
					{
						OFFSET -2.700000 1.550000 -0.730000
						CHANNELS 3 Zrotation Yrotation Xrotation
						JOINT RightForeArm
						{
							OFFSET -5.450000 0.000000 0.000000
							CHANNELS 3 Zrotation Yrotation Xrotation
							JOINT RightHand
							{
								OFFSET -3.450000 0.000000 0.000000
								CHANNELS 3 Zrotation Yrotation Xrotation
								JOINT RightHandIndex1
								{
									OFFSET -0.750000 0.000000 0.000000
									CHANNELS 3 Zrotation Yrotation Xrotation
									End Site
									{
										OFFSET 0.000000 0.000000 0.000000
									}
								}
							}
						}
					}
				}
			}
		}
	}
}
MOTION
Frames: 10
Frame Time: 0.016667
-0.493950 17.560310 -1.475760 -19.434543 55.760857 -24.626194 -15.576358 14.899747 3.090505 10.345880 -0.217961 -2.015760 -2.544154 5.251972 10.602595 -0.516799 4.746859 3.097741 0.473510 0.010780 0.351020 17.523757 -10.870701 2.461820 -20.496291 -2.318296 -24.284648 5.449015 -7.432010 24.216939 -0.172205 -3.971463 2.942191 0.105010 0.253380 0.102960 -2.666393 -4.171898 -7.676249 5.055616 -3.273596 30.004943 1.405740 -1.168194 10.762242 1.687291 3.765917 -10.145617 0.859235 -10.161002 42.644516 13.637900 -14.255920 -15.482500 -16.328285 -22.390555 -0.068471 -0.333401 -27.691491 -5.601301 36.253087 -51.250820 -15.590248 -3.412440 2.587442 0.754150 -0.061150 -0.033710 0.216320 13.281782 18.392129 11.245275 -12.497347 -7.918525 -1.850011 -10.371418 10.145221 -0.277670 2.194307 -1.251133 -0.335380 0.354810 -0.025160 -0.215840 
-0.521430 17.570490 -1.477970 -19.789514 55.650744 -25.297204 -15.568791 14.960735 3.081207 10.902234 -0.286173 -2.377448 -2.718763 5.400002 11.355667 -0.530978 4.832233 3.060107 0.468380 0.006540 0.337300 17.525978 -10.877132 2.437453 -19.358157 -1.825184 -24.634553 4.989061 -7.692532 26.949279 -0.189017 -4.207896 2.857807 0.113900 0.272870 0.112920 -2.592793 -4.277340 -7.617599 4.723674 -3.164537 30.531888 1.627080 -1.149126 11.800037 1.691542 3.640862 -10.406190 0.774452 -10.320922 41.620828 13.074840 -14.302220 -15.289660 -15.338237 -22.689439 -0.224090 -1.070566 -28.353647 -5.949692 37.458301 -49.705749 -16.028380 -3.441249 2.584549 0.737930 -0.042340 -0.051480 0.213410 12.198605 18.829839 11.882234 -10.711384 -7.445950 -2.268395 -12.923299 10.390282 -0.554658 2.192259 -1.265935 -0.338140 0.356940 -0.008160 -0.211580 
-0.629690 17.628820 -1.502010 -20.348142 55.441591 -27.356070 -15.556290 15.060415 3.076828 12.339827 -0.274648 -2.468176 -3.589789 5.906775 12.697122 -0.576437 5.154243 2.940427 0.456140 -0.010300 0.345080 17.548866 -10.804972 2.435317 -16.096285 -0.127043 -25.426552 2.716635 -8.285463 36.231774 -0.342669 -5.189032 2.520706 0.144370 0.321800 0.104720 -2.352251 -4.613256 -7.507405 3.494367 -2.460212 33.518307 2.141058 -0.753741 14.283941 1.715179 3.697122 -10.996675 1.354630 -10.754320 39.133089 13.192910 -13.881550 -17.023690 -12.687150 -23.887396 -0.725439 -0.863479 -29.323528 -7.353307 37.691958 -43.819978 -15.167236 -3.535374 2.547424 0.758760 -0.021780 -0.070930 0.191520 9.286642 20.450202 13.365373 -6.993381 -7.010643 -3.477771 -17.800776 11.857391 -1.321216 2.148547 -1.267987 -0.391760 0.430660 0.035210 -0.225440 
-0.727550 17.670810 -1.509110 -20.726137 55.880085 -27.661242 -15.597603 14.847446 2.908930 13.263163 -0.392977 -4.051305 -4.624619 6.364089 14.252005 -0.571886 5.268994 2.892316 0.497900 0.069040 0.320140 17.591996 -10.440159 2.815925 -13.724611 2.338133 -27.977856 2.587036 -10.160178 47.302012 -0.716071 -6.996926 1.930391 0.203440 0.365930 0.091390 -2.326985 -4.611431 -7.633067 2.939090 -1.547141 34.006144 2.463588 -0.133181 16.155817 1.541135 4.106437 -11.697193 2.368566 -11.153696 38.144606 13.853390 -14.175090 -16.655980 -10.588855 -25.751770 -0.877801 -1.990964 -31.250952 -7.752944 37.231982 -37.094891 -13.752662 -3.591846 2.611328 0.713050 -0.004210 -0.088610 0.239620 7.384429 22.460487 14.432959 -2.512523 -4.650966 -5.569286 -24.900598 8.869069 -2.329935 2.219798 -1.407390 -0.384760 0.470500 0.012810 -0.184830 
-0.810160 17.663350 -1.479960 -19.521395 56.912561 -25.807138 -15.675943 14.432075 2.681932 13.003035 -0.495580 -5.618298 -5.635239 6.712528 15.378681 -0.597734 5.267828 2.844701 0.570520 0.144850 0.356570 17.643174 -9.977387 3.343444 -12.470798 4.947842 -31.339672 3.075135 -13.005061 58.938817 -1.259127 -9.172742 1.233918 0.252850 0.322590 0.096620 -2.480543 -4.306309 -7.886090 1.884288 -0.640997 33.046348 1.935941 0.524634 16.569317 1.355961 4.655999 -11.841258 3.363914 -11.270021 38.964825 14.665870 -14.170280 -17.143530 -8.831038 -26.687661 -0.661810 -3.886461 -32.689351 -7.176271 36.438103 -32.361274 -12.574527 -3.582479 2.688006 0.717360 -0.034470 -0.069330 0.251650 6.046292 23.438198 13.900987 2.693132 -0.912982 -8.416906 -33.094702 9.865336 -4.270893 2.210959 -1.576420 -0.358700 0.445740 -0.019570 -0.187860 
-0.874870 17.646550 -1.467160 -21.257098 57.690336 -27.053308 -15.713955 13.940912 2.469267 14.679934 -0.582963 -7.013350 -6.971221 7.401618 16.848083 -0.672117 5.519987 2.681378 0.609270 0.161960 0.432990 17.712483 -9.595616 3.824834 -10.017834 7.731139 -32.953359 4.688059 -16.966293 68.779699 -1.859097 -11.225863 0.622740 0.284830 0.255540 0.103900 -2.927818 -3.608213 -8.205093 4.576290 -0.797359 32.962552 0.031342 1.216254 16.091117 1.870868 5.379505 -11.261014 4.602017 -11.981558 40.310718 14.315420 -13.866990 -19.076890 -8.825662 -27.250078 -0.757260 -5.611631 -34.776614 -6.174410 34.964387 -30.405813 -11.716116 -3.573724 2.651187 0.787680 -0.074940 -0.029380 0.208460 5.131985 23.373861 12.726071 9.641956 0.907562 -12.556159 -45.533584 17.406915 -9.606052 2.063462 -1.646890 -0.377470 0.442310 -0.012050 -0.240600 
-0.915210 17.635790 -1.466490 -23.642778 58.347091 -30.317469 -15.720471 13.639251 2.297578 16.399465 -0.492740 -7.575406 -7.559223 8.204258 19.444097 -0.577601 5.805390 2.496662 0.681670 0.252180 0.489360 17.761618 -9.386489 4.119984 -6.894166 9.824847 -32.008199 5.861961 -21.411046 77.542872 -2.511431 -13.120197 0.142103 0.281380 0.137460 0.160870 -3.502357 -2.896680 -8.484446 8.262973 -2.091719 34.582374 -2.717888 1.044406 15.772707 2.264241 5.103039 -11.402075 3.951619 -11.534134 43.435395 14.872170 -13.255460 -21.160260 -9.829520 -28.049168 0.082693 -6.055076 -33.233410 -6.874592 34.097109 -32.329331 -11.745277 -3.473664 2.700697 0.828250 -0.142700 0.078800 0.203010 5.406883 23.968397 12.054442 13.887300 1.820707 -16.004592 -55.708469 28.493838 -17.826456 1.933775 -1.582423 -0.282420 0.352480 -0.062910 -0.240720 
-0.939410 17.589860 -1.436190 -23.497261 58.337282 -30.762680 -15.763566 13.253780 2.099448 17.358567 -0.199735 -7.464359 -8.382699 9.068824 21.219888 -0.470666 6.100224 2.400835 0.709350 0.321010 0.497370 17.804783 -9.132772 4.424231 -4.650890 12.160959 -31.286772 7.444501 -26.345382 85.369704 -3.079328 -14.889015 -0.206862 0.300690 0.129140 0.120740 -3.956108 -2.182942 -8.717152 10.206943 -2.082020 34.740170 -4.472491 1.644755 16.397541 2.363467 4.592530 -11.321668 3.307435 -11.503926 44.773852 15.686800 -13.617970 -22.125410 -9.233731 -27.436797 0.526447 -7.288585 -31.620495 -7.323536 33.019825 -36.767759 -12.271241 -3.357051 2.627762 0.814290 -0.165700 0.102470 0.230840 4.724468 24.127113 11.617830 17.865784 4.202637 -18.180960 -65.124973 36.894523 -27.389990 1.834880 -1.401987 -0.265730 0.392370 -0.111160 -0.212200 
-0.956080 17.536710 -1.415160 -23.110379 58.342393 -31.521150 -15.801962 12.979124 1.920282 18.258388 0.188822 -6.987952 -8.746122 9.914353 23.283210 -0.356705 6.430234 2.261654 0.769640 0.397960 0.532060 17.829909 -8.895634 4.681605 -2.628873 14.232200 -29.487451 10.083612 -31.868055 90.614462 -3.577907 -16.348108 -0.497220 0.318660 0.082060 0.133110 -4.281213 -1.657622 -8.905367 11.529808 -2.029149 35.575703 -5.832645 2.180460 17.173432 2.654867 3.960336 -11.316537 2.708886 -10.879417 46.067596 17.057840 -13.362800 -23.831360 -9.810032 -27.035366 1.153680 -8.335571 -28.545605 -8.827706 33.599343 -43.137547 -14.175791 -3.219186 2.620863 0.823820 -0.211700 0.154640 0.248310 4.884439 24.846457 11.237484 19.138959 7.448380 -19.417536 -72.179205 43.988811 -36.685857 1.788022 -1.172805 -0.216410 0.369730 -0.157740 -0.194930 
-1.003290 17.442380 -1.411360 -23.223990 61.820147 -32.555662 -15.913037 13.022382 1.769429 16.915277 -0.047929 -8.068320 -7.124533 9.813013 26.100134 -0.371067 6.490269 2.219508 0.730830 0.335870 0.518650 17.712575 -8.632727 4.928482 -3.352958 14.026559 -28.261763 14.574182 -40.025988 93.520307 -4.023928 -17.835387 -0.795549 0.277450 0.080250 0.154350 -4.312078 -1.798439 -8.971215 10.320151 -2.187182 36.795682 -5.453872 1.555502 16.992335 2.484958 3.818906 -11.500810 2.864167 -10.779476 46.784798 18.303390 -13.464090 -25.019500 -9.763468 -26.676079 1.995296 -9.582791 -24.677399 -10.540528 35.089983 -50.580271 -17.309323 -3.136411 2.568372 0.863540 -0.225740 0.166190 0.220540 5.403118 25.069671 10.868525 19.433611 9.729659 -19.824481 -80.660066 50.825515 -47.873328 1.721892 -0.755864 -0.225180 0.354580 -0.123040 -0.205550 
